<svg fill="#000000" version="1.1" id="Capa_1" xmlns="http://www.w3.org/2000/svg" xmlns:xlink="http://www.w3.org/1999/xlink" 
	 width="800px" height="800px" viewBox="0 0 418.497 418.497"
	 xml:space="preserve">
<path d="M246.92,187.032c-6.793-0.003-12.844-4.331-15.057-10.771c-2.08-6.06-7.779-10.128-14.188-10.128c-0.002,0-0.004,0-0.006,0
		l-9.392,0.004c-4.642,0.002-9.021,2.152-11.86,5.824s-3.818,8.451-2.652,12.944c6.283,24.208,28.137,41.12,53.151,41.127
		c35.137-0.009,63.725-28.604,63.73-63.748c-0.006-41.243-33.562-74.797-74.807-74.797c-48.867,0.002-88.625,39.761-88.625,88.631
		c0.007,58.39,47.517,105.899,105.912,105.905c70.303-0.006,127.502-57.207,127.508-127.51c0-41.271-16.072-80.073-45.256-109.256
		C306.198,16.071,267.399-0.001,226.125,0C122.316,0,37.86,84.455,37.86,188.264c0,61.557,23.972,119.429,67.499,162.956
		c40.768,40.77,94.847,64.655,152.276,67.262c0.228,0.011,0.453,0.016,0.681,0.016c3.853,0,7.565-1.482,10.362-4.155
		c2.961-2.83,4.637-6.748,4.637-10.845v-9.013c0-8.005-6.285-14.601-14.281-14.982C156.88,374.608,76.86,290.607,76.86,188.265
		c0-82.305,66.96-149.264,149.266-149.264c30.854-0.001,59.859,12.015,81.678,33.832c21.818,21.818,33.834,50.827,33.834,81.68
		c-0.002,48.801-39.707,88.506-88.506,88.512c-36.893-0.006-66.908-30.021-66.914-66.909c0-27.363,22.263-49.626,49.626-49.628
		c19.738,0,35.801,16.061,35.805,35.797C271.647,175.928,260.549,187.029,246.92,187.032z"/>
</svg>