<?xml version="1.0" encoding="iso-8859-1"?>
<!-- Generator: Adobe Illustrator 19.0.0, SVG Export Plug-In . SVG Version: 6.00 Build 0)  -->
<svg version="1.1" id="Capa_1" xmlns="http://www.w3.org/2000/svg" xmlns:xlink="http://www.w3.org/1999/xlink" x="0px" y="0px"
	 viewBox="0 0 512 512" style="enable-background:new 0 0 512 512;" xml:space="preserve">
		<path d="M437,268.152h-50.118c-6.821,0-13.425,0.932-19.71,2.646c-12.398-24.372-37.71-41.118-66.877-41.118h-88.59
			c-29.167,0-54.479,16.746-66.877,41.118c-6.285-1.714-12.889-2.646-19.71-2.646H75c-41.355,0-75,33.645-75,75v80.118
			c0,24.813,20.187,45,45,45h422c24.813,0,45-20.187,45-45v-80.118C512,301.797,478.355,268.152,437,268.152z M136.705,304.682
			v133.589H45c-8.271,0-15-6.729-15-15v-80.118c0-24.813,20.187-45,45-45h50.118c4.072,0,8.015,0.553,11.769,1.572
			C136.779,301.366,136.705,303.016,136.705,304.682z M345.295,438.271h-178.59V304.681c0-24.813,20.187-45,45-45h88.59
			c24.813,0,45,20.187,45,45V438.271z M482,423.271c0,8.271-6.729,15-15,15h-91.705v-133.59c0-1.667-0.074-3.317-0.182-4.957
			c3.754-1.018,7.697-1.572,11.769-1.572H437c24.813,0,45,20.187,45,45V423.271z M100.06,126.504c-36.749,0-66.646,29.897-66.646,66.646c-0.001,36.749,29.897,66.646,66.646,66.646
			c36.748,0,66.646-29.897,66.646-66.646C166.706,156.401,136.809,126.504,100.06,126.504z M100.059,229.796
			c-20.207,0-36.646-16.439-36.646-36.646c0-20.207,16.439-36.646,36.646-36.646c20.207,0,36.646,16.439,36.646,36.646
			C136.705,213.357,120.266,229.796,100.059,229.796z M256,43.729c-49.096,0-89.038,39.942-89.038,89.038c0,49.096,39.942,89.038,89.038,89.038s89.038-39.942,89.038-89.038
			C345.038,83.672,305.096,43.729,256,43.729z M256,191.805c-32.554,0-59.038-26.484-59.038-59.038
			c0-32.553,26.484-59.038,59.038-59.038s59.038,26.484,59.038,59.038C315.038,165.321,288.554,191.805,256,191.805z M411.94,126.504c-36.748,0-66.646,29.897-66.646,66.646c0.001,36.749,29.898,66.646,66.646,66.646
			c36.749,0,66.646-29.897,66.646-66.646C478.586,156.401,448.689,126.504,411.94,126.504z M411.94,229.796
			c-20.206,0-36.646-16.439-36.646-36.646c0.001-20.207,16.44-36.646,36.646-36.646c20.207,0,36.646,16.439,36.646,36.646
			C448.586,213.357,432.147,229.796,411.94,229.796z"/>

</svg>
