<?xml version="1.0" encoding="iso-8859-1"?>
<!-- Generator: Adobe Illustrator 16.0.0, SVG Export Plug-In . SVG Version: 6.00 Build 0)  -->
<!DOCTYPE svg PUBLIC "-//W3C//DTD SVG 1.1//EN" "http://www.w3.org/Graphics/SVG/1.1/DTD/svg11.dtd">
<svg version="1.1" id="Capa_1" xmlns="http://www.w3.org/2000/svg" xmlns:xlink="http://www.w3.org/1999/xlink" x="0px" y="0px"
	 width="496.777px" height="496.778px" viewBox="0 0 496.777 496.778" style="enable-background:new 0 0 496.777 496.778;"
	 xml:space="preserve">
	<path d="M496.777,496.521l-13.203-37.185L368.676,344.437c8.672-14.763,16.213-30.779,22.539-47.992
		c16.408-44.655,24.729-97.457,24.729-156.938v-15.304h-15.305c-1.102,0-2.186-0.023-3.273-0.041l34.902-34.904
		c1.172,0.896,2.297,1.878,3.367,2.951c10.375,10.372,12.498,25.867,6.387,38.347c12.354,5.694,27.467,3.454,37.648-6.727
		c10.18-10.183,12.42-25.292,6.725-37.646c-12.479,6.111-27.973,3.987-38.346-6.388c-1.07-1.072-2.053-2.195-2.949-3.366
		l27.252-27.255c7.689,5.341,21.105,0.592,23.48-1.784c3.674-3.674-3.691-16.99-16.445-29.741
		c-12.754-12.757-26.07-20.12-29.742-16.448c-2.375,2.378-7.125,15.792-1.785,23.482l-27.252,27.251
		c-1.172-0.896-2.299-1.878-3.371-2.947c-10.373-10.376-12.496-25.867-6.385-38.348c-12.352-5.694-27.467-3.455-37.645,6.726
		c-10.182,10.183-12.422,25.294-6.727,37.647c12.479-6.112,27.971-3.988,38.344,6.384c1.072,1.071,2.057,2.2,2.949,3.37
		l-53.596,53.594c-72.855-19.024-105.792-78.036-105.792-78.036s-32.188,59.185-105.703,78.121L89.004,64.766
		c0.894-1.17,1.877-2.299,2.949-3.37c10.373-10.372,25.864-12.496,38.344-6.384c5.696-12.354,3.456-27.465-6.726-37.647
		c-10.178-10.181-25.293-12.42-37.646-6.726c6.113,12.48,3.989,27.972-6.385,38.348c-1.071,1.069-2.198,2.052-3.37,2.947
		L48.919,24.683c5.338-7.69,0.59-21.104-1.786-23.482C43.46-2.471,30.146,4.892,17.391,17.648
		C4.636,30.399-2.727,43.716,0.945,47.39c2.377,2.376,15.793,7.125,23.481,1.784l27.252,27.255
		c-0.896,1.171-1.879,2.294-2.949,3.366C38.355,90.17,22.863,92.294,10.383,86.183c-5.696,12.354-3.455,27.464,6.726,37.646
		c10.181,10.181,25.294,12.421,37.647,6.727c-6.111-12.479-3.988-27.975,6.387-38.347c1.07-1.073,2.195-2.056,3.367-2.951
		l34.904,34.904c-1.089,0.018-2.174,0.041-3.275,0.041H80.835v15.304c0,59.48,8.319,112.282,24.728,156.938
		c6.325,17.213,13.865,33.229,22.538,47.992L13.203,459.336L0,496.521l37.696-12.688l110.278-110.278
		c4.201,5.304,8.583,10.388,13.152,15.233c40.774,43.255,82.084,53.161,83.823,53.563l3.437,0.79l3.437-0.79
		c1.737-0.402,43.051-10.31,83.825-53.563c4.568-4.849,8.951-9.934,13.152-15.233L459.08,483.833L496.777,496.521z M313.377,367.792
		c-27.588,29.264-55.354,40.464-64.99,43.682c-9.636-3.218-37.401-14.418-64.987-43.682c-20.673-21.931-37.195-49.487-49.106-81.903
		c-13.81-37.584-21.419-81.79-22.666-131.589c66.949-4.482,111.436-37.471,136.926-64.252
		c25.653,26.715,70.26,59.717,136.598,64.241c-1.248,49.8-8.855,94.014-22.668,131.599
		C350.572,318.304,334.051,345.86,313.377,367.792z"/>
</svg>
