<?xml version="1.0" encoding="UTF-8" standalone="no"?>

<!-- ####################################################################

This file was generates automatically via the 
IconPacks.Browser (MIT-License). 

Visit https://github.com/MahApps/MahApps.Metro.IconPacks and 
https://github.com/MahApps/MahApps.Metro.IconPacks/blob/develop/LICENSE 
for more information.
 
~~~~~~~~~~~~~~~~~~~~~~~~~~~~~~~~~~~~~~~~~~~~~~~~~~~~~~~~~~~~~~~~~~~~~~~~~~
 
Icon-Name: 			Focus
Iconpack:			Unicons
Iconpack-Homepage: 	https://iconscout.com/unicons
Iconpack-License:	https://github.com/Iconscout/unicons/blob/master/LICENSE

#####################################################################-->


<svg xmlns="http://www.w3.org/2000/svg"
     width="48"
     height="48">
    <path d="M8,2H3A1,1,0,0,0,2,3V8A1,1,0,0,0,4,8V4H8A1,1,0,0,0,8,2ZM8,20H4V16a1,1,0,0,0-2,0v5a1,1,0,0,0,1,1H8a1,1,0,0,0,0-2ZM21,2H16a1,1,0,0,0,0,2h4V8a1,1,0,0,0,2,0V3A1,1,0,0,0,21,2Zm0,13a1,1,0,0,0-1,1v4H16a1,1,0,0,0,0,2h5a1,1,0,0,0,1-1V16A1,1,0,0,0,21,15Z"
          style="fill:#000000;
                 stroke:none
                 stroke-width:0;
                 stroke-linecap:flat;
                 stroke-linejoin:miter;"
          transform="matrix(2.4,0,0,2.4,-4.8,-4.8)" />
</svg>