<?xml version="1.0" encoding="UTF-8" standalone="no"?>

<!-- ####################################################################

This file was generates automatically via the 
IconPacks.Browser (MIT-License). 

Visit https://github.com/MahApps/MahApps.Metro.IconPacks and 
https://github.com/MahApps/MahApps.Metro.IconPacks/blob/develop/LICENSE 
for more information.
 
~~~~~~~~~~~~~~~~~~~~~~~~~~~~~~~~~~~~~~~~~~~~~~~~~~~~~~~~~~~~~~~~~~~~~~~~~~
 
Icon-Name: 			RegularReset
Iconpack:			BoxIcons
Iconpack-Homepage: 	https://boxicons.com/
Iconpack-License:	https://boxicons.com/usage/#license

#####################################################################-->


<svg xmlns="http://www.w3.org/2000/svg"
     width="224"
     height="224">
    <path d="M512 277.333c71.296 0 128 56.789 128 128s-56.704 128-128 128-128-56.789-128-128 56.704-128 128-128zM888.192 482.731c-10.882 52.112-30.973 98.185-58.658 138.652l0.845-1.308c-28.065 41.148-62.532 75.615-102.352 102.823l-1.328 0.857c-39.162 26.83-85.233 46.919-134.854 57.374l-2.49 0.439c-23.016 4.886-49.46 7.685-76.557 7.685-0.655 0-1.311-0.002-1.965-0.005h0.101v85.419l-169.6-128 169.6-128v85.248c20.651 0.085 41.301-1.877 61.227-5.973 40.503-8.47 76.311-24.082 107.772-45.587l-1.020 0.659c32.067-21.816 58.909-48.659 80.060-79.691l0.665-1.034c31.955-46.686 51.030-104.383 51.030-166.535 0-0.147 0-0.295 0-0.442v0.023c-0.008-41.981-8.637-81.944-24.212-118.219l0.746 1.952c-8.348-19.475-17.543-36.131-28.155-51.745l0.678 1.057c-11.328-16.562-23.367-31.053-36.615-44.338l0.007 0.007c-40.086-40.012-91.446-68.743-148.904-81.014l-1.966-0.352c-18.099-3.826-38.895-6.016-60.203-6.016s-42.103 2.191-62.175 6.359l1.972-0.342c-40.521 8.479-76.344 24.105-107.814 45.629l1.019-0.658c-32.030 21.797-58.844 48.61-79.975 79.607l-0.665 1.033c-31.984 46.827-51.072 104.673-51.072 166.977 0 0.022 0 0.044 0 0.066v-0.003h-85.333c0.049-80.134 24.582-154.529 66.522-216.119l-0.858 1.335c28.083-41.081 62.514-75.511 102.268-102.736l1.327-0.858c59.996-41.092 134.151-65.622 214.036-65.622 0.248 0 0.496 0 0.744 0.001h-0.038c27.398 0.002 54.131 2.845 79.921 8.251l-2.524-0.443c52.090 10.976 98.134 31.055 138.631 58.669l-1.33-0.856c21.246 14.421 39.816 29.848 56.777 46.878l0.012 0.013c16.977 17.022 32.411 35.599 46.066 55.494l0.868 1.338c41.066 59.991 65.579 134.132 65.579 213.999 0 0.231 0 0.462-0.001 0.692v-0.036c-0.002 27.398-2.845 54.131-8.251 79.921l0.443-2.524z"
          style="fill:#000000;
                 stroke:none
                 stroke-width:0;
                 stroke-linecap:flat;
                 stroke-linejoin:miter;"
          transform="matrix(0.26250041227852483,0,0,-0.26250041227852483,-22.400607625008277,229.600446055636)" />
</svg>