<?xml version="1.0" encoding="UTF-8" standalone="no"?>

<!-- ####################################################################

This file was generates automatically via the 
IconPacks.Browser (MIT-License). 

Visit https://github.com/MahApps/MahApps.Metro.IconPacks and 
https://github.com/MahApps/MahApps.Metro.IconPacks/blob/develop/LICENSE 
for more information.
 
~~~~~~~~~~~~~~~~~~~~~~~~~~~~~~~~~~~~~~~~~~~~~~~~~~~~~~~~~~~~~~~~~~~~~~~~~~
 
Icon-Name: 			InfoOutline
Iconpack:			MaterialDesign
Iconpack-Homepage: 	http://google.github.io/material-design-icons/
Iconpack-License:	http://google.github.io/material-design-icons/#licensing

#####################################################################-->


<svg xmlns="http://www.w3.org/2000/svg"
     width="48"
     height="48">
    <path d="M235 320v43h42v-43h-42zM256 85c94 0 171 77 171 171s-77 171 -171 171s-171 -77 -171 -171s77 -171 171 -171zM256 469c118 0 213 -95 213 -213s-95 -213 -213 -213s-213 95 -213 213s95 213 213 213zM235 149v128h42v-128h-42z"
          style="fill:#000000;
                 stroke:none
                 stroke-width:0;
                 stroke-linecap:flat;
                 stroke-linejoin:miter;"
          transform="matrix(0.11267605633802817,0,0,-0.11267605633802817,-4.845070422535211,52.845070422535215)" />
</svg>